# xmcd
#
# Track frame offsets: 
#        150
#        16582
#        31105
#        47847
#        58090
#        73167
#        85992
#        99077
#        115592
#        128505
#
# Disc length: 1835 seconds
#
# Revision: 2
# Processed by: cddbd v1.4b42PL1 Copyright (c) Steve Scherf et al.
# Submitted via: ExactAudioCopy v0.90a11
#
DISCID=7107290a
DTITLE=Willie Nelson - What A Wonderful World
DYEAR=1900
DGENRE=
TTITLE0=Spanish Eyes
TTITLE1=Moon River
TTITLE2=Some Enchanted Evening
TTITLE3=What A Wonderful World
TTITLE4=South Of The Border
TTITLE5=Ole Buttermilk Sky
TTITLE6=The Song From Moulin Rouge (Where Is Your Heart)
TTITLE7=To Each His Own
TTITLE8=Twilight Time
TTITLE9=Ac-cent-tchu-ate The Positive
EXTD=
EXTT0=
EXTT1=
EXTT2=
EXTT3=
EXTT4=
EXTT5=
EXTT6=
EXTT7=
EXTT8=
EXTT9=
PLAYORDER=
